<svg width="26" height="26" viewBox="0 0 26 26" fill="none" xmlns="http://www.w3.org/2000/svg">
<rect width="26" height="26" fill="#555555"/>
<g id="Sales">
<path d="M-7732 -4502C-7732 -4503.1 -7731.1 -4504 -7730 -4504H8778C8779.11 -4504 8780 -4503.1 8780 -4502V15014C8780 15015.1 8779.11 15016 8778 15016H-7730C-7731.1 15016 -7732 15015.1 -7732 15014V-4502Z" fill="#404040"/>
<g id="Home_Dashboard" clip-path="url(#clip0_45_1446)">
<rect width="428" height="926" transform="translate(-31 -249)" fill="white"/>
<g id="Group 19084">
<path id="Rectangle 4343" d="M-11 0.999998C-11 -10.0457 -2.04569 -19 9 -19H153C164.046 -19 173 -10.0457 173 1V156C173 167.046 164.046 176 153 176H9C-2.0457 176 -11 167.046 -11 156V0.999998Z" fill="#7ECD8B"/>
<g id="Group 19076">
<path id="Vector" d="M20.4622 0.873047C22.9683 0.873047 25 2.90406 25 5.40944V20.329C25 22.8344 22.9683 24.8654 20.4622 24.8654H5.53785C3.03166 24.8654 1 22.8344 1 20.329V5.40944C1 2.90406 3.03166 0.873047 5.53785 0.873047H9.26892H13" stroke="white" stroke-width="1.5" stroke-linecap="round" stroke-linejoin="round"/>
<path id="Vector_2" d="M7.17042 0.865479V13.7467C7.1694 13.8475 7.19851 13.9462 7.25403 14.0304C7.30955 14.1145 7.38894 14.1801 7.48201 14.2188C7.57509 14.2575 7.67761 14.2675 7.77642 14.2476C7.87523 14.2276 7.96583 14.1786 8.03659 14.1069L11.6929 10.582C11.7874 10.4902 11.9139 10.4389 12.0455 10.4389C12.1772 10.4389 12.3037 10.4902 12.3981 10.582L16.0621 14.1069C16.1333 14.176 16.2232 14.2227 16.3207 14.2411C16.4182 14.2596 16.519 14.2489 16.6105 14.2105C16.702 14.1721 16.7802 14.1077 16.8354 14.0252C16.8905 13.9428 16.9202 13.8459 16.9207 13.7467V0.865479M5.72168 21.4402H17.3269M5.72168 17.9076H21.5352" stroke="white" stroke-width="1.5" stroke-linecap="round" stroke-linejoin="round"/>
</g>
</g>
</g>
</g>
<defs>
<clipPath id="clip0_45_1446">
<rect width="428" height="926" fill="white" transform="translate(-31 -249)"/>
</clipPath>
</defs>
</svg>
